<svg width="22" height="26" viewBox="0 0 22 26" fill="none" xmlns="http://www.w3.org/2000/svg">
<path d="M7.0091 9.5C7.21107 9.5 7.40477 9.58367 7.54759 9.73259C7.6904 9.88152 7.77064 10.0835 7.77064 10.2941V19.8235C7.77064 20.0341 7.6904 20.2361 7.54759 20.3851C7.40477 20.534 7.21107 20.6176 7.0091 20.6176C6.80712 20.6176 6.61342 20.534 6.47061 20.3851C6.32779 20.2361 6.24756 20.0341 6.24756 19.8235V10.2941C6.24756 10.0835 6.32779 9.88152 6.47061 9.73259C6.61342 9.58367 6.80712 9.5 7.0091 9.5V9.5ZM10.8168 9.5C11.0188 9.5 11.2125 9.58367 11.3553 9.73259C11.4981 9.88152 11.5783 10.0835 11.5783 10.2941V19.8235C11.5783 20.0341 11.4981 20.2361 11.3553 20.3851C11.2125 20.534 11.0188 20.6176 10.8168 20.6176C10.6148 20.6176 10.4211 20.534 10.2783 20.3851C10.1355 20.2361 10.0553 20.0341 10.0553 19.8235V10.2941C10.0553 10.0835 10.1355 9.88152 10.2783 9.73259C10.4211 9.58367 10.6148 9.5 10.8168 9.5V9.5ZM15.386 10.2941C15.386 10.0835 15.3058 9.88152 15.163 9.73259C15.0202 9.58367 14.8265 9.5 14.6245 9.5C14.4225 9.5 14.2288 9.58367 14.086 9.73259C13.9432 9.88152 13.8629 10.0835 13.8629 10.2941V19.8235C13.8629 20.0341 13.9432 20.2361 14.086 20.3851C14.2288 20.534 14.4225 20.6176 14.6245 20.6176C14.8265 20.6176 15.0202 20.534 15.163 20.3851C15.3058 20.2361 15.386 20.0341 15.386 19.8235V10.2941Z" fill="white"/>
<path fill-rule="evenodd" clip-rule="evenodd" d="M20.7167 5.52942C20.7167 5.95064 20.5563 6.35462 20.2706 6.65247C19.985 6.95032 19.5976 7.11765 19.1937 7.11765H18.4321V21.4118C18.4321 22.2542 18.1112 23.0622 17.5399 23.6579C16.9687 24.2536 16.1939 24.5882 15.386 24.5882H6.24752C5.43963 24.5882 4.66483 24.2536 4.09356 23.6579C3.5223 23.0622 3.20136 22.2542 3.20136 21.4118V7.11765H2.43982C2.03588 7.11765 1.64848 6.95032 1.36285 6.65247C1.07721 6.35462 0.916748 5.95064 0.916748 5.52942V3.94118C0.916748 3.51995 1.07721 3.11598 1.36285 2.81813C1.64848 2.52028 2.03588 2.35294 2.43982 2.35294H7.77059C7.77059 1.93172 7.93106 1.52774 8.21669 1.22989C8.50233 0.932041 8.88973 0.764709 9.29367 0.764709L12.3398 0.764709C12.7438 0.764709 13.1312 0.932041 13.4168 1.22989C13.7024 1.52774 13.8629 1.93172 13.8629 2.35294H19.1937C19.5976 2.35294 19.985 2.52028 20.2706 2.81813C20.5563 3.11598 20.7167 3.51995 20.7167 3.94118V5.52942ZM4.90416 7.11765L4.72444 7.21136V21.4118C4.72444 21.833 4.88491 22.237 5.17054 22.5348C5.45617 22.8327 5.84357 23 6.24752 23H15.386C15.7899 23 16.1773 22.8327 16.463 22.5348C16.7486 22.237 16.9091 21.833 16.9091 21.4118V7.21136L16.7293 7.11765H4.90416ZM2.43982 5.52942V3.94118H19.1937V5.52942H2.43982Z" fill="white"/>
</svg>
